<svg xmlns="http://www.w3.org/2000/svg" xmlns:xlink="http://www.w3.org/1999/xlink" version="1.1" id="Layer_1" x="0px" y="0px" width="100px" height="100px" viewBox="0 0 100 100" enable-background="new 0 0 100 100" xml:space="preserve">
<path d="M70.376,45.587c-0.351-0.414-0.293-0.51-0.901-0.429c-0.602,0.074-0.624-0.199-1.503-0.375  c-0.879-0.174-1.465,0.315-1.387-0.352c0.077-0.664-0.37-1.78-0.586-2.678c-0.218-0.9-0.547-1.562-0.57-2.834  c-0.018-1.269-1.386-3.341-1.814-3.888c-0.432-0.549-1.779-1.115-2.484-1.604c-0.702-0.487-1.152-0.744-1.776-1.154  c-0.626-0.411-0.255-0.545-0.725-0.607c-0.468-0.058-0.39-0.524-0.722-0.427c-0.334,0.098-0.393-0.156-0.354-0.763  c0.039-0.606,0.217-1.464,0.312-2.152c0.098-0.682,0.295-0.819,0.646-0.976c0.353-0.156,0.448-0.388,0.723-0.76  c0.272-0.373,0.412-0.878,0.996-1.251c0.588-0.371,1.097-0.783,1.349-1.446c0.255-0.668,0.47-1.388,0.079-2.032  c-0.392-0.646-0.82-1.585-1.406-2.149c-0.589-0.568-0.804-0.688-1.543-0.453c-0.746,0.235-0.688,0.411-1.174,0.254  c-0.492-0.156-1.625-0.449-2.562-0.507c-0.938-0.06-1.21,0.115-2.149,0.488c-0.938,0.375-1.801,0.881-1.877,1.038  c-0.078,0.155-0.353-0.294-0.586-0.471c-0.235-0.176-0.101-0.781-0.02-0.939c0.078-0.156,0.058-0.369-0.216-0.448  c-0.272-0.079-0.605-0.411-0.744-0.899c0,0-0.156-1.054-0.448-1.857c-0.292-0.801-0.957-1.777-1.604-2.736  c-0.644-0.957-1.328-3.244-1.562-3.87c-0.236-0.626-0.08-0.391,0.136-0.49c0.217-0.096,0.194-0.311,0-0.644  c-0.193-0.33-0.859-0.684-1.034-1.234c-0.176-0.545-0.39-0.758-0.92-1.031c-0.529-0.276-1.505-0.53-2.053-0.823  c-0.546-0.293-1.094-0.312-1.388-0.194c-0.243,0.097-0.475,0.319-0.27,0.523c0.256,0.135,0.463,0.265,0.174,0.121  c-0.077-0.04-0.135-0.079-0.174-0.121c-0.161-0.081-0.343-0.169-0.432-0.192c-0.236-0.059-0.841,0.234-0.549,0.508  c0.254,0.236,0.677,0.526,0.831,0.617c0.04,0.02,0.06,0.031,0.049,0.027c-0.005,0-0.024-0.012-0.049-0.027  c-0.214-0.099-0.993-0.433-1.144-0.186c-0.173,0.292-0.057,0.664,0.214,0.742c0.277,0.078,0.626,0.273,0.843,0.432  c0.215,0.154-0.664-0.159-0.861,0.056c-0.196,0.215-0.196,0.843,1.192,0.899c0.275,0.041,0.919,0.236,0.997,0.489  c0.079,0.255,0.589,0.997,0.703,1.057c0.12,0.058,1.017,0.312,1.252,1.131c0.235,0.82,0.899,3.107,1.233,4.163  c0.331,1.056,0.625,2.15,1.054,2.562c0.431,0.411,0.625,0.488,0.021,0.822c-0.604,0.33-0.567,0.74-1.233,0.644  c-0.662-0.098-0.916,0.469-0.76,0.608c0.157,0.134-0.783,0.076-0.431,0.545c0.353,0.469,0.218,0.412,0.117,0.723  c-0.096,0.312-0.096,0.432,0.06,0.703c0.157,0.276-0.253,0.878,0.076,0.939c0.335,0.059,0.763,0.313,0.492,0.566  c-0.274,0.254-0.665,0.686-0.313,0.938c0.351,0.254,0.371,0.586,0.39,0.784c0.021,0.193,0.195,0.506,0.627,0.154  c0.429-0.353,0.819-0.293,1.075-0.782c0.251-0.489,0.39-0.625,0.43,0.077c0.039,0.705-0.196,1.117-0.021,1.938  c0.177,0.819-0.176,0.839-0.061,1.62c0.12,0.784-0.329,0.547-0.136,1.468c0.196,0.917-0.273,1.619,0.08,2.657  c0.352,1.037,0.487,1.84,0.878,3.342c0.393,1.505,0.743,1.583,1.329,3.106c0.588,1.527,0.393,4.886,0.116,6.747  c-0.272,1.856-0.485,2.148-1.035,2.616c-0.547,0.471-0.995,0.744-2.092,1.292c-1.094,0.546-3.068,1.54-4.416,1.602  c-1.351,0.06-2.208,0.433-3.403,0.353c-1.191-0.078-1.7,0.174-2.03,0.039c-0.334-0.137-0.997,0.118-0.997,0.408  c0,0.293,0.372,1.429,0.801,1.292c0.431-0.134,0.233,1.034,0.763,0.897c0.527-0.135,0.369,0.684,1.036,0.726  c0.663,0.04,0.427,0.743,1.133,0.765c0.705,0.016,0.803,0.624,1.172,0.682c0.371,0.056,0.174,0.625,0.626,0.55  c0.45-0.081,0.508,0.27,0.508,0.663c0,0.391-0.723,3.926-1.232,5.06c-0.507,1.137-1.19,3.558-1.31,4.809  c-0.116,1.253-0.058,1.291-0.684,2.407c-0.625,1.112-1.913,3.242-2.891,4.278c-0.978,1.035-1.7,2.54-2.092,3.655  c-0.391,1.111-0.684,4.552-0.741,5.922c-0.061,1.369-0.276,2.871-0.804,3.575c-0.526,0.706-0.896,0.995-1.172,2.23  c-0.273,1.23,0.431,1.835,0.548,2.912c0.114,1.073,0.04,1.603,0.605,2.034c0.568,0.428,1.563,1.093,2.482,1.112  c0.918,0.021,1.799-0.137,1.817-0.507c0.021-0.372-0.018-0.685-0.488-1.525c-0.467-0.843-1.152-1.524-0.958-2.833  c0.195-1.31,0.606-1.623,0.588-2.542c-0.021-0.921,0.117-1.684,0.469-2.893c0.351-1.212,1.19-2.619,1.837-3.754  c0.644-1.132,1.483-3.342,1.817-4.398c0.332-1.055,1.271-1.757,1.778-2.325c0.509-0.567,2.131-2.695,2.776-3.675  c0.645-0.976,2.912-5.119,3.596-6.312c0.686-1.193,1.369-2.212,1.641-2.639c0.275-0.432,1.018-0.453,1.096,0.194  c0.079,0.647-0.352,1.193,0.412,0.881c0.762-0.313,0.449,0.722,0.858,0.604c0.41-0.118,0.702,0.175,0.899,0.257  c0.195,0.075,2.696,1.835,3.868,2.931c1.173,1.092,3.949,3.03,4.751,3.498c0.8,0.468,1.289,1.115,0.86,2.132  c-0.429,1.015-1.252,3.164-1.015,5.94c0.232,2.775,0.545,4.787,0.662,5.785c0.119,0.999-0.02,1.817-0.35,2.13  c-0.335,0.313-0.96,0.468-1.468,1.349c-0.51,0.879-0.272,1.229,0.449,1.857c0.724,0.624,1.624,0.703,2.718,2.951  c1.093,2.249,2.053,2.111,2.737,2.189c0.685,0.079,1.483-0.062,1.505-0.488c0.02-0.432-0.218-0.721-0.627-1.016  c-0.41-0.295-0.761-0.724-0.761-1.547c0-0.822-0.233-3.281-0.491-4.358c-0.252-1.071-0.194-4.396-0.077-5.548  c0.12-1.154,1.468-5.515,1.545-6.627c0.078-1.114,0.782-2.696,1.21-3.675c0.431-0.975,0.452-1.816,0.14-2.562  c-0.313-0.744-2.58-3.303-3.207-4.24c-0.626-0.94-2.56-2.933-3.302-3.46c-0.744-0.529-1.036-0.822-0.568-0.78  c0.471,0.039,0.568-0.022,0.508-0.295c-0.057-0.273-0.235-0.528-0.684-0.392s-0.702,0.178-0.859-0.273  c-0.155-0.448-0.372-0.958-0.335-1.72c0.041-0.764-0.173-0.86-0.408-1.407c0,0-0.194-0.333-0.372-0.86  c-0.175-0.526-0.486-0.587,0.215-0.47c0.704,0.118,0.999-0.41,0.939-0.626c-0.059-0.212-0.587-0.291-0.587-0.291  s-0.076-0.116,0.548-0.566c0.625-0.451,3.499-2.367,4.379-2.874c0.879-0.507,1.952-1.661,2.307-1.995c0,0,0.271-0.31,0.567-0.234  c0.292,0.08,0.799-0.118,1.093,0.12c0.295,0.233,0.546,0.35,0.996,0.173c0.45-0.173,2.21-1.7,2.366-2.266  C70.629,45.626,70.728,45.995,70.376,45.587 M51.024,28.464c0,0.274-0.253-0.06-0.467-0.428c-0.215-0.373-0.137-0.394-0.137-1.175  c0-0.782-0.059-1.057-0.078-1.25c-0.021-0.199-0.041-0.803-0.078-1.369c-0.039-0.567-0.061-0.92-0.061-1.388  c0-0.469,0-0.839,0.178-0.586c0.176,0.254,0.214-0.274,0.351,0c0.138,0.273,0.236,0.273,0.157,0.53  c-0.079,0.252,0.059,0.68,0.059,0.68c-0.021,0.353,0.037,0.51-0.097,0.86c-0.139,0.353-0.256,0.585-0.353,0.999  c-0.099,0.408,0.077,0.957,0.371,1.581C51.164,27.547,51.024,28.19,51.024,28.464 M62.226,45.722  c-0.585,0.355-1.524,1.055-1.524,1.193c0,0.137-0.176,0.429,0.411,0.273c0,0-0.803,0.8-1.351,1.368  c-0.546,0.569-1.074,1.078-1.347,1.251c-0.272,0.179,0.37-0.486,0.743-1.521c0.371-1.038,0.722-2.173,1.252-2.798  c0.525-0.624,1.075-0.801,1.33-1.35c0.252-0.545,0.427,0.099,0.723,0.628C62.754,45.294,62.812,45.373,62.226,45.722"/>
</svg>