<svg xmlns="http://www.w3.org/2000/svg" xmlns:xlink="http://www.w3.org/1999/xlink" version="1.1" id="Your_Icon" x="0px" y="0px" width="100px" height="100px" viewBox="0 0 100 100" enable-background="new 0 0 100 100" xml:space="preserve">
<path d="M76.815,60.234c-5.154-2.42-17.865-22.457-20.924-28.419c0,0,0.306-3.369-1.379-3.369c-1.675,0-28.598,5.896-32.705,6.873  c-3.025-4.196-7.875-8.594-15.579-12.548c0,0-2.89,8.313-4.439,12.107c-1.57,3.844-4.923,13.004,10.224,17.624  c15.665,4.775,25.404,7.057,38.341,18.565c0,0,10.319,10.378,41.784,4.197C113.132,71.141,84.297,63.749,76.815,60.234z   M37.036,57.346c0,0-5.516-4.574-10.897-4.037c0,0,1.929-6.483-2.163-14.464c1.799-0.322,27.422-4.938,30.231-6.416  c0,0,17.154,26.037,21.499,27.992C71.723,61.764,48.235,69.036,37.036,57.346z"/>
<rect x="8.871" y="74.948" width="5.952" height="1.944"/>
<path d="M0.546,46.453c0,0,7.714,13.722,8.347,27.634h5.952c-0.064-16.496,8.301-16.993,8.301-16.993  C11.846,52.771,5.906,53.568,0.546,46.453z"/>
</svg>