<svg xmlns="http://www.w3.org/2000/svg" xmlns:xlink="http://www.w3.org/1999/xlink" version="1.1" id="Layer_1" x="0px" y="0px" width="100px" height="100px" viewBox="0 0 100 100" enable-background="new 0 0 100 100" xml:space="preserve">
<g id="&#22294;&#23652;_3" display="none">
	<path display="inline" d="M-62.5,84c-0.556-5.979,2.16-11.521,4-17c3.581-10.666,6.762-23.565,12-34c1.278-2.546,3.577-4.508,5-7   c0.84-1.471,1.061-2.468,2-4c1.722-2.808,3.805-6.996,6-11c8.765-15.982,18.765-34.918,28-52c1.296,7.33-1.659,14.655-3,22   c-0.479,2.622-0.253,5.936-1,8c-0.61,1.686-2.999,3.204-4,5c-1.21,2.171-1.996,4.201-3,6c-7.699,13.79-15.151,28.185-23,42   C-47.507,56.094-55.81,69.628-62.5,84z"/>
	<path display="inline" d="M78.5,11c-1.081-8.396,0.566-26.98,0-45c4.596,0.227,8.719,3.378,13,5c4.38,1.659,8.482,3.127,13,5   c5.723,2.373,11.084,4.547,17,7c5.663,2.348,11.216,4.534,17,7c2.355,1.005,6.346,0.884,7,4C122.59-0.909,101.303,5.801,78.5,11z"/>
	<path display="inline" d="M-34.5,107c-11.507-3.493-21.206-8.794-32-13c4.856-11.622,11.994-22.128,18-33   c2.946-5.334,5.704-10.453,9-16c0.699-1.176,0.182-1.146,1-2c2.374-2.478,5.49-10.645,8-15c1.133-1.965,2.817-3.941,4-6   c5.734-9.979,10.596-22.188,18-32c6.029,2.074,11.483,5.271,17,8c5.586,2.762,11.534,4.959,16,9c-0.024,3.451-3.113,5.824-5,9   c-1.205,2.027-1.738,4.891-3,7c-0.24,0.402-1.846,0.656-2,1c-1.006,2.232-2.216,5.246-4,8C-4.616,55.33-18.701,83.049-34.5,107z"/>
	<path display="inline" d="M46.5,21c-0.688,30.886,0.874,62.633,1,95c0.17,4.217-1.536-0.018-3,0c-8.516-8.471-17.361-16.657-26-25   c-4.431-4.279-9.439-7.83-14-12c-4.256-3.893-8.738-8.107-12-13c9.989-20.344,22.968-37.699,33-58   C32.75,12.084,39.634,16.533,46.5,21z"/>
	<path display="inline" d="M25.5-32c-2.579-3.777-11.173-4.515-13.734-8.571c-0.482,0.145-0.99,0.14-1.494-0.155   c-0.135-0.079-0.26-0.183-0.38-0.296C9.777-40.999,9.649-40.988,9.5-41c-4.238-1.941-10.35-7.409-13-5   c1.547,10.555-3.558,23.104-5,34C2.834-6.334,14.166-0.666,25.5,5C26.212-10.699,24.083-22.509,25.5-32z"/>
	<path display="inline" d="M26.5,6c0-10.333,0-20.667,0-31c18.017-1.983,32.634-7.366,51-9c-0.718,12.137-1.253,28.164-1,46   c-10.312,1.688-18.618,5.382-29,7c8.545,0.956,16.741-2.854,25-5c16.076-4.177,33.132-8.564,51-13c8.382-2.08,16.268-5.377,25-6   c-2.829,30.485-5.189,59.077-7,88c-19.784,6.648-39.236,15.312-59,23c-1.805,0.701-4.199,1.293-6,2c-5.201,2.041-10.875,4.646-17,7   c-3.539,1.359-6.921,3.939-11,3c0.646-25.757-0.569-50.206-1-72c-0.155-7.857,1.126-16.479,0-24c-0.25-1.667-0.521-2.623-2-3   C39.801,14.032,31.678,11.489,26.5,6z"/>
</g>
<path d="M17.2,83.221c-2.58-1.805-7.877-4.604-8.688-6.951c-0.983-2.843-2.91-6.209-2.781-9.732  c6.777-4.694,16.683-6.26,25.027-9.385c-3.796-3.256-2.285-10.642,2.432-10.775c2.072-0.059,3.617,1.635,4.52,3.823  c8.021-4.375,16.023-8.771,20.854-16.336c-1.781,0.745-1.692-0.642-3.475-0.695c-1.486-1.911-1.15-4.008-1.391-6.257  c0.568-2.106,2.467-1.474,4.171-2.085c0.237-0.085,2.571-2.713,4.17-1.737c1.172,0.683,1.567,2.14,2.781,2.78  c1.925-4.679,5.206-11.317,4.171-16.683c0.975-0.416,2.398-0.383,3.824-0.348c0.828,7.281,4.918,11.301,7.299,17.031  c1.195-5.576,11.349-6.628,10.428,0.695c-0.223,1.78-1.979,1.953-1.738,3.824c1.578,2.38,4.279,5.043,6.952,7.299  c-0.641,9.017,1.349,15.862,2.433,23.983c-1.252,1.351-1.092,5.362-4.17,5.214c-0.551-0.025-0.707-0.52-1.391-0.695  c1.982-5.799-0.546-13.58-2.433-19.464c-4.037,1.526-2.476,8.649-2.781,13.904c-0.034,1.296-1.356,0.023-1.392,0.695  c-3.76,10.365-0.264,23.515,0.349,35.453c-3.153,0.787-7.744,0.134-11.47,0.348c-0.801-0.982-0.461-1.822-2.086-2.434  c0.25-2.183,4.027-0.84,5.562-1.737c1.336-13.247-5.029-22.949-3.128-36.845c-0.466,0.23-0.647,0.744-0.694,1.392  c-3.51-3.763,2.982-11.772,3.476-16.337c0.188-1.749-0.47-3.786-1.043-5.561c0.077-1.314,1.093-1.688,1.391-2.781  c-2.893-4.522-4.735-10.095-6.952-15.293c-0.09-1.364,1.029-2.878-0.695-3.128c0.34,6.711-0.979,11.766-3.822,15.293  c-0.17,1.098,0.626,1.228,0.348,2.434c-0.512,1.851-3.047,2.658-3.476,4.518c-0.728,3.152,2.084,5.152,1.737,8.342  c-0.395,3.638-5.191,5.155-6.256,9.732c6.07,11.425,6.676,28.315,11.469,41.015c-3.141,2.686-10.239,0.209-13.902,1.738  c-2.548,0-5.098,0-7.646,0C38.613,95.643,26.041,89.398,17.2,83.221z M53.354,44.64c-4.857,3.021-11.448,4.308-15.295,8.342  c4.68,0.141,8.285-3.75,13.903-3.824C52.616,47.844,53.633,46.89,53.354,44.64z"/>
</svg>