<svg xmlns="http://www.w3.org/2000/svg" xmlns:xlink="http://www.w3.org/1999/xlink" version="1.1" id="Capa_1" x="0px" y="0px" width="100px" height="100px" viewBox="0 0 100 100" enable-background="new 0 0 100 100" xml:space="preserve">
<g id="Capa_28">
	<g>
		<polygon points="62.557,74.845 62.557,54.438 37.399,54.438 37.399,74.845 12.229,74.845 12.229,100 87.771,100 87.771,74.845       "/>
		<g>
			<path d="M52.077,8.944c2.065-1.985,2.135-5.269,0.146-7.338c-1.984-2.065-5.269-2.133-7.334-0.146     c-2.07,1.987-2.136,5.271-0.153,7.338C46.723,10.866,50.008,10.934,52.077,8.944z"/>
			<path d="M65.719,0l-7.184,8.482l-8.56,4.333c-0.448-0.093-0.921-0.152-1.421-0.156c-0.011,0-0.022,0-0.033,0     c-0.484,0-0.94,0.053-1.374,0.136l0.006-0.025l-8.001-2.606l-6.22-8.515L30.37,3.28l5.55,9.985     c0.303,0.479,0.781,0.821,1.331,0.954l6.876,2.187l-0.1,12.195h-0.011l-0.134,10.941l0.306,14.223h1.55h3.938l-0.307-14.253     l0.028-2.197l1.075,3.729l0.519,12.721h5.483l-0.533-13.277c-0.01-0.22-0.043-0.437-0.104-0.648l-3.054-10.59     c0.003-0.072,0.021-0.137,0.021-0.209l0.104-12.789l7.968-4.012c0.338-0.154,0.63-0.392,0.854-0.691l6.34-9.809L65.719,0z"/>
		</g>
		<g>
			<path d="M28.569,28.987c1.983-2.066,1.919-5.349-0.153-7.336c-2.066-1.987-5.351-1.919-7.334,0.146     c-1.988,2.069-1.922,5.352,0.147,7.338C23.296,31.123,26.583,31.057,28.569,28.987z"/>
			<path d="M35.562,38.563l-6.404-5.604c-0.804-0.904-1.963-1.485-3.268-1.485c-0.011,0-0.022,0-0.033,0     c-0.971,0.008-1.858,0.339-2.58,0.879l-8.215,6.043c-0.93,0.665-1.192,1.933-0.605,2.915l6.092,9.239l1.061-0.637     c0.003,0.178,0.034,0.348,0.057,0.52L18.67,60.539c-0.075,0.238-0.115,0.486-0.123,0.736L18.18,74.132h5.493l0.35-12.325     l1.113-3.758l0.15,3.428l-0.289,12.655h5.49l0.288-12.623c0.001-0.059,0.001-0.12-0.001-0.181L30.307,50.68     c0.017-0.086,0.014-0.181,0.025-0.272L31.987,51l4.174-10.068C36.46,40.095,36.224,39.158,35.562,38.563z M19.265,40.785     l2.26-1.685l0.047,6.024L19.265,40.785z M30.35,44.865l-0.039-5.084l1.22,1.063L30.35,44.865z"/>
		</g>
		<g>
			<path d="M71.17,28.987c-1.982-2.066-1.919-5.349,0.152-7.336c2.066-1.987,5.352-1.919,7.334,0.146     c1.988,2.069,1.922,5.352-0.147,7.338C76.441,31.123,73.154,31.057,71.17,28.987z"/>
			<path d="M63.577,40.932L67.752,51l1.654-0.593c0.012,0.092,0.009,0.187,0.025,0.272l-0.469,10.649     c-0.002,0.062-0.002,0.122-0.001,0.181l0.288,12.623h5.488L74.45,61.477L74.6,58.05l1.112,3.759l0.351,12.324h5.494     l-0.367-12.857c-0.008-0.25-0.047-0.498-0.123-0.736L78.07,50.433c0.023-0.172,0.055-0.342,0.058-0.52l1.062,0.637l6.093-9.239     c0.587-0.982,0.325-2.25-0.605-2.915l-8.215-6.043c-0.722-0.54-1.608-0.871-2.58-0.879c-0.011,0-0.021,0-0.021,0     c-1.315,0-2.477,0.582-3.279,1.485l-6.402,5.604C63.516,39.158,63.277,40.095,63.577,40.932z M78.167,45.124l0.047-6.024     l2.261,1.685L78.167,45.124z M68.208,40.843l1.22-1.063l-0.039,5.084L68.208,40.843z"/>
		</g>
	</g>
</g>
</svg>